<svg width="70" height="80" viewBox="0 0 70 80" fill="none" xmlns="http://www.w3.org/2000/svg">
<path d="M43.75 0C46.6484 0 49 3.35781 49 7.5V22.5C49 26.6406 46.6484 30 43.75 30H38.5V35H66.5C68.4359 35 70 37.2344 70 40C70 42.7656 68.4359 45 66.5 45H56V50H61.25C64.1484 50 66.5 53.3594 66.5 57.5V72.5C66.5 76.6406 64.1484 80 61.25 80H43.75C40.8516 80 38.5 76.6406 38.5 72.5V57.5C38.5 53.3594 40.8516 50 43.75 50H49V45H21V50H26.25C29.1484 50 31.5 53.3594 31.5 57.5V72.5C31.5 76.6406 29.1484 80 26.25 80H8.75C5.85047 80 3.5 76.6406 3.5 72.5V57.5C3.5 53.3594 5.85047 50 8.75 50H14V45H3.5C1.56734 45 0 42.7656 0 40C0 37.2344 1.56734 35 3.5 35H31.5V30H26.25C23.3516 30 21 26.6406 21 22.5V7.5C21 3.35781 23.3516 0 26.25 0H43.75ZM28 10V20H42V10H28ZM24.5 70V60H10.5V70H24.5ZM45.5 60V70H59.5V60H45.5Z" fill="#595959"/>
</svg>
