<svg width="136" height="51" viewBox="0 0 136 51" fill="none" xmlns="http://www.w3.org/2000/svg">
<path d="M23.3333 12.88V0.213318H5C2.23854 0.213318 0 2.33993 0 4.96332V46.13C0 48.7524 2.23854 50.88 5 50.88H35C37.7615 50.88 40 48.7534 40 46.13V16.0466H26.7604C24.8229 16.0466 23.3333 14.6315 23.3333 12.88ZM16.0521 35.2248C16.8658 35.9978 16.8658 37.2534 16.0521 38.0263C15.6458 38.4211 15.1146 38.6091 14.5833 38.6091C14.0521 38.6091 13.5177 38.4174 13.1104 38.0308L8.11042 33.2808C7.29667 32.5078 7.29667 31.2522 8.11042 30.4793L13.1104 25.7293C13.9242 24.9563 15.2427 24.9563 16.0562 25.7293C16.8698 26.5024 16.87 27.758 16.0562 28.5308L12.5312 31.88L16.0521 35.2248ZM31.8854 30.4748C32.6992 31.2478 32.6992 32.5034 31.8854 33.2763L26.8854 38.0263C26.4792 38.4211 25.9479 38.6091 25.4167 38.6091C24.8854 38.6091 24.351 38.4174 23.9438 38.0308C23.13 37.2578 23.13 36.0022 23.9438 35.2293L27.4688 31.88L23.9417 28.5312C23.1279 27.7582 23.1279 26.5026 23.9417 25.7297C24.7554 24.9569 26.074 24.9567 26.8875 25.7297L31.8854 30.4748ZM26.6667 0.213318V12.88H40L26.6667 0.213318Z" fill="white"/>
<path d="M68.832 21.488V35H65.184V21.488H60.648V18.248H73.368V21.488H68.832ZM81.9743 35.288C80.8703 35.288 79.8623 35.104 78.9503 34.736C78.0383 34.368 77.2623 33.824 76.6223 33.104C75.9823 32.368 75.4863 31.464 75.1343 30.392C74.7823 29.304 74.6063 28.048 74.6063 26.624C74.6063 25.2 74.7823 23.952 75.1343 22.88C75.4863 21.792 75.9823 20.888 76.6223 20.168C77.2623 19.432 78.0383 18.88 78.9503 18.512C79.8623 18.144 80.8703 17.96 81.9743 17.96C83.0783 17.96 84.0863 18.144 84.9983 18.512C85.9103 18.88 86.6863 19.432 87.3263 20.168C87.9663 20.888 88.4623 21.792 88.8143 22.88C89.1663 23.952 89.3423 25.2 89.3423 26.624C89.3423 28.048 89.1663 29.304 88.8143 30.392C88.4623 31.464 87.9663 32.368 87.3263 33.104C86.6863 33.824 85.9103 34.368 84.9983 34.736C84.0863 35.104 83.0783 35.288 81.9743 35.288ZM81.9743 32.048C83.0783 32.048 83.9343 31.688 84.5423 30.968C85.1663 30.248 85.4783 29.216 85.4783 27.872V25.376C85.4783 24.032 85.1663 23 84.5423 22.28C83.9343 21.56 83.0783 21.2 81.9743 21.2C80.8703 21.2 80.0063 21.56 79.3823 22.28C78.7743 23 78.4703 24.032 78.4703 25.376V27.872C78.4703 29.216 78.7743 30.248 79.3823 30.968C80.0063 31.688 80.8703 32.048 81.9743 32.048ZM99.1071 35.288C98.0031 35.288 96.9951 35.104 96.0831 34.736C95.1711 34.368 94.3951 33.824 93.7551 33.104C93.1151 32.368 92.6191 31.464 92.2671 30.392C91.9151 29.304 91.7391 28.048 91.7391 26.624C91.7391 25.2 91.9151 23.952 92.2671 22.88C92.6191 21.792 93.1151 20.888 93.7551 20.168C94.3951 19.432 95.1711 18.88 96.0831 18.512C96.9951 18.144 98.0031 17.96 99.1071 17.96C100.211 17.96 101.219 18.144 102.131 18.512C103.043 18.88 103.819 19.432 104.459 20.168C105.099 20.888 105.595 21.792 105.947 22.88C106.299 23.952 106.475 25.2 106.475 26.624C106.475 28.048 106.299 29.304 105.947 30.392C105.595 31.464 105.099 32.368 104.459 33.104C103.819 33.824 103.043 34.368 102.131 34.736C101.219 35.104 100.211 35.288 99.1071 35.288ZM99.1071 32.048C100.211 32.048 101.067 31.688 101.675 30.968C102.299 30.248 102.611 29.216 102.611 27.872V25.376C102.611 24.032 102.299 23 101.675 22.28C101.067 21.56 100.211 21.2 99.1071 21.2C98.0031 21.2 97.1391 21.56 96.5151 22.28C95.9071 23 95.6031 24.032 95.6031 25.376V27.872C95.6031 29.216 95.9071 30.248 96.5151 30.968C97.1391 31.688 98.0031 32.048 99.1071 32.048ZM109.52 35V18.248H113.168V31.76H119.552V35H109.52ZM127.67 35.288C126.198 35.288 124.95 35.04 123.926 34.544C122.902 34.032 122.03 33.376 121.31 32.576L123.71 30.152C124.846 31.432 126.246 32.072 127.91 32.072C128.806 32.072 129.47 31.888 129.902 31.52C130.334 31.152 130.55 30.664 130.55 30.056C130.55 29.592 130.422 29.208 130.166 28.904C129.91 28.584 129.39 28.368 128.606 28.256L126.95 28.04C125.174 27.816 123.87 27.28 123.038 26.432C122.222 25.584 121.814 24.456 121.814 23.048C121.814 22.296 121.958 21.608 122.246 20.984C122.534 20.36 122.942 19.824 123.47 19.376C124.014 18.928 124.67 18.584 125.438 18.344C126.222 18.088 127.11 17.96 128.102 17.96C129.366 17.96 130.478 18.16 131.438 18.56C132.398 18.96 133.222 19.544 133.91 20.312L131.486 22.76C131.086 22.296 130.598 21.92 130.022 21.632C129.462 21.328 128.75 21.176 127.886 21.176C127.07 21.176 126.462 21.32 126.062 21.608C125.662 21.896 125.462 22.296 125.462 22.808C125.462 23.384 125.614 23.8 125.918 24.056C126.238 24.312 126.75 24.496 127.454 24.608L129.11 24.872C130.838 25.144 132.118 25.68 132.95 26.48C133.782 27.264 134.198 28.384 134.198 29.84C134.198 30.64 134.054 31.376 133.766 32.048C133.478 32.72 133.054 33.296 132.494 33.776C131.95 34.256 131.27 34.632 130.454 34.904C129.638 35.16 128.71 35.288 127.67 35.288Z" fill="white"/>
</svg>
