<svg width="70" height="80" viewBox="0 0 70 80" fill="none" xmlns="http://www.w3.org/2000/svg">
<path d="M34.9891 50C41.2683 50 46.2656 42.725 46.2656 33.75C46.2656 24.775 41.1753 17.5 34.9891 17.5C28.7098 17.5 23.7125 24.775 23.7125 33.75C23.6141 42.7188 28.7109 50 34.9891 50ZM40.4578 55H29.5422C20.9563 55 14 64.3281 14 75.8281C14 78.1406 15.3891 80 17.1062 80H52.8937C54.6109 80 56 78.1406 56 75.8281C56 64.3281 49.0438 55 40.4578 55ZM56 25C60.8322 25 64.75 19.4031 64.75 12.5C64.75 5.59688 60.8344 0 56 0C51.1678 0 47.25 5.59688 47.25 12.5C47.25 19.4031 51.1656 25 56 25ZM20.1141 33.75C20.1141 32.8986 20.2215 32.0891 20.29 31.2641C19.0969 30.3281 17.7844 30 16.3953 30H9.63375C4.31375 30 0 36.5312 0 44.5781C0 46.1875 0.862641 47.5 1.92719 47.5H23.7475C21.5141 43.7812 20.1141 39.0156 20.1141 33.75ZM14 25C18.8322 25 22.75 19.4031 22.75 12.5C22.75 5.59688 18.8344 0 14 0C9.16781 0 5.25 5.59688 5.25 12.5C5.25 19.4031 9.16781 25 14 25ZM60.3641 30H53.6003C52.2003 30 50.8791 30.4745 49.6781 31.2875C49.7438 32.1094 49.8531 32.9062 49.8531 33.75C49.8531 39.0172 48.4553 43.7828 46.2262 47.5H68.0684C69.1359 47.5 70 46.1875 70 44.5781C70 36.5312 65.6906 30 60.3641 30Z" fill="#595959"/>
</svg>
