<svg width="70" height="80" viewBox="0 0 70 80" fill="none" xmlns="http://www.w3.org/2000/svg">
<path d="M20.7949 5.96253C22.1348 7.34847 22.2441 9.71878 21.0273 11.2594L11.1891 23.7657C10.5861 24.5157 9.73574 24.9688 8.83613 24.8594C7.93652 25.0313 7.06699 24.625 6.42988 23.7657L0.960996 17.5157C-0.320332 16.1875 -0.320332 13.8125 0.960996 12.3485C2.24219 10.8844 4.32031 10.8844 5.60137 12.3485L8.62422 15.7969L16.1602 6.24065C17.3633 4.70159 19.4414 4.57659 20.7949 5.96253ZM20.7949 30.9688C22.1348 32.3438 22.2441 34.7188 21.0273 36.2656L11.1891 48.7656C10.5861 49.5156 9.73574 49.9688 8.83613 49.8594C7.93652 50.0313 7.06699 49.625 6.42988 48.7656L0.960996 42.5156C-0.320332 41.1875 -0.320332 38.8125 0.960996 37.3438C2.24219 35.8906 4.32031 35.8906 5.60137 37.3438L8.62422 40.7969L16.1602 31.2344C17.3633 29.7031 19.4414 29.5781 20.7949 30.9688ZM30.625 15C30.625 12.2391 32.5801 10 35 10H65.625C68.0449 10 70 12.2391 70 15C70 17.7657 68.0449 20 65.625 20H35C32.5801 20 30.625 17.7657 30.625 15ZM30.625 40C30.625 37.2344 32.5801 35 35 35H65.625C68.0449 35 70 37.2344 70 40C70 42.7656 68.0449 45 65.625 45H35C32.5801 45 30.625 42.7656 30.625 40ZM21.875 65C21.875 62.2344 23.8301 60 26.25 60H65.625C68.0449 60 70 62.2344 70 65C70 67.7656 68.0449 70 65.625 70H26.25C23.8301 70 21.875 67.7656 21.875 65ZM0 65C0 60.8594 2.93809 57.5 6.5625 57.5C10.1869 57.5 13.125 60.8594 13.125 65C13.125 69.1406 10.1869 72.5 6.5625 72.5C2.93809 72.5 0 69.1406 0 65Z" fill="#595959"/>
</svg>
